<!DOCTYPE svg PUBLIC "-//W3C//DTD SVG 1.1//EN" "http://www.w3.org/Graphics/SVG/1.1/DTD/svg11.dtd">
<!-- Uploaded to: SVG Repo, www.svgrepo.com, Transformed by: SVG Repo Mixer Tools -->
<svg width="800px" height="800px" viewBox="0 0 24 24" xmlns="http://www.w3.org/2000/svg" fill="#000000">
<g id="SVGRepo_bgCarrier" stroke-width="0"/>
<g id="SVGRepo_tracerCarrier" stroke-linecap="round" stroke-linejoin="round"/>
<g id="SVGRepo_iconCarrier"> <defs> <style>.cls-1{fill:#ffd068;}.cls-2{fill:#b29148;}</style> </defs> <title>Icon_24px_DataStudio_Color</title> <g data-name="Product Icons"> <g data-name="Data Studio"> <g> <path class="cls-1" d="M19.5,16.17H12.24a2.53,2.53,0,0,0-2.74,2.5,2.5,2.5,0,0,0,2.74,2.5H19.5Z"/> <circle class="cls-2" cx="19.5" cy="18.67" r="2.5"/> </g> <g> <path class="cls-1" d="M12,9.5H4.74A2.53,2.53,0,0,0,2,12a2.5,2.5,0,0,0,2.74,2.5H12Z"/> <circle class="cls-2" cx="12" cy="12" r="2.5"/> </g> <g> <path class="cls-1" d="M19.5,2.83H12.24A2.54,2.54,0,0,0,9.5,5.33a2.5,2.5,0,0,0,2.74,2.5H19.5Z"/> <circle class="cls-2" cx="19.5" cy="5.33" r="2.5"/> </g> </g> </g> </g>
</svg>